<svg id="visual" viewBox="0 0 8000 663" width="8000" height="663" xmlns="http://www.w3.org/2000/svg" xmlns:xlink="http://www.w3.org/1999/xlink" version="1.1"><rect x="0" y="0" width="8000" height="663" fill="#222222"></rect><path d="M0 599L74 588.8C148 578.7 296 558.3 444.2 530.2C592.3 502 740.7 466 888.8 467.3C1037 468.7 1185 507.3 1333.2 517.5C1481.3 527.7 1629.7 509.3 1777.8 524.7C1926 540 2074 589 2222.2 610.2C2370.3 631.3 2518.7 624.7 2666.8 606.5C2815 588.3 2963 558.7 3111.2 553.5C3259.3 548.3 3407.7 567.7 3555.8 588.8C3704 610 3852 633 4000 608.2C4148 583.3 4296 510.7 4444.2 507.2C4592.3 503.7 4740.7 569.3 4888.8 583.8C5037 598.3 5185 561.7 5333.2 526C5481.3 490.3 5629.7 455.7 5777.8 416C5926 376.3 6074 331.7 6222.2 356.3C6370.3 381 6518.7 475 6666.8 513C6815 551 6963 533 7111.2 510.3C7259.3 487.7 7407.7 460.3 7555.8 436.7C7704 413 7852 393 7926 383L8000 373L8000 0L7926 0C7852 0 7704 0 7555.8 0C7407.7 0 7259.3 0 7111.2 0C6963 0 6815 0 6666.8 0C6518.7 0 6370.3 0 6222.2 0C6074 0 5926 0 5777.8 0C5629.7 0 5481.3 0 5333.2 0C5185 0 5037 0 4888.8 0C4740.7 0 4592.3 0 4444.2 0C4296 0 4148 0 4000 0C3852 0 3704 0 3555.8 0C3407.7 0 3259.3 0 3111.2 0C2963 0 2815 0 2666.8 0C2518.7 0 2370.3 0 2222.2 0C2074 0 1926 0 1777.8 0C1629.7 0 1481.3 0 1333.2 0C1185 0 1037 0 888.8 0C740.7 0 592.3 0 444.2 0C296 0 148 0 74 0L0 0Z" fill="#222222"></path><path d="M0 337L74 364.3C148 391.7 296 446.3 444.2 442.7C592.3 439 740.7 377 888.8 329C1037 281 1185 247 1333.2 272.5C1481.3 298 1629.7 383 1777.8 393.7C1926 404.3 2074 340.7 2222.2 340.3C2370.3 340 2518.7 403 2666.8 440.8C2815 478.7 2963 491.3 3111.2 467C3259.3 442.7 3407.7 381.3 3555.8 359.2C3704 337 3852 354 4000 360.3C4148 366.7 4296 362.3 4444.2 390.3C4592.3 418.3 4740.7 478.7 4888.8 487.2C5037 495.7 5185 452.3 5333.2 404.7C5481.3 357 5629.7 305 5777.8 328.7C5926 352.3 6074 451.7 6222.2 493.8C6370.3 536 6518.7 521 6666.8 481.5C6815 442 6963 378 7111.2 329.5C7259.3 281 7407.7 248 7555.8 259.5C7704 271 7852 327 7926 355L8000 383L8000 0L7926 0C7852 0 7704 0 7555.8 0C7407.7 0 7259.3 0 7111.2 0C6963 0 6815 0 6666.8 0C6518.7 0 6370.3 0 6222.2 0C6074 0 5926 0 5777.8 0C5629.7 0 5481.3 0 5333.2 0C5185 0 5037 0 4888.8 0C4740.7 0 4592.3 0 4444.2 0C4296 0 4148 0 4000 0C3852 0 3704 0 3555.8 0C3407.7 0 3259.3 0 3111.2 0C2963 0 2815 0 2666.8 0C2518.7 0 2370.3 0 2222.2 0C2074 0 1926 0 1777.8 0C1629.7 0 1481.3 0 1333.2 0C1185 0 1037 0 888.8 0C740.7 0 592.3 0 444.2 0C296 0 148 0 74 0L0 0Z" fill="#312138"></path><path d="M0 330L74 313.5C148 297 296 264 444.2 244.2C592.3 224.3 740.7 217.7 888.8 245.8C1037 274 1185 337 1333.2 354.5C1481.3 372 1629.7 344 1777.8 333.8C1926 323.7 2074 331.3 2222.2 338.7C2370.3 346 2518.7 353 2666.8 325.5C2815 298 2963 236 3111.2 217.8C3259.3 199.7 3407.7 225.3 3555.8 269.5C3704 313.7 3852 376.3 4000 400C4148 423.7 4296 408.3 4444.2 397.3C4592.3 386.3 4740.7 379.7 4888.8 360.3C5037 341 5185 309 5333.2 307C5481.3 305 5629.7 333 5777.8 332.3C5926 331.7 6074 302.3 6222.2 278.2C6370.3 254 6518.7 235 6666.8 250.7C6815 266.3 6963 316.7 7111.2 330.8C7259.3 345 7407.7 323 7555.8 293C7704 263 7852 225 7926 206L8000 187L8000 0L7926 0C7852 0 7704 0 7555.8 0C7407.7 0 7259.3 0 7111.2 0C6963 0 6815 0 6666.8 0C6518.7 0 6370.3 0 6222.2 0C6074 0 5926 0 5777.8 0C5629.7 0 5481.3 0 5333.2 0C5185 0 5037 0 4888.8 0C4740.7 0 4592.3 0 4444.2 0C4296 0 4148 0 4000 0C3852 0 3704 0 3555.8 0C3407.7 0 3259.3 0 3111.2 0C2963 0 2815 0 2666.8 0C2518.7 0 2370.3 0 2222.2 0C2074 0 1926 0 1777.8 0C1629.7 0 1481.3 0 1333.2 0C1185 0 1037 0 888.8 0C740.7 0 592.3 0 444.2 0C296 0 148 0 74 0L0 0Z" fill="#3e1d4f"></path><path d="M0 243L74 235.8C148 228.7 296 214.3 444.2 188.8C592.3 163.3 740.7 126.7 888.8 123.5C1037 120.3 1185 150.7 1333.2 158.7C1481.3 166.7 1629.7 152.3 1777.8 137.3C1926 122.3 2074 106.7 2222.2 127.7C2370.3 148.7 2518.7 206.3 2666.8 212.7C2815 219 2963 174 3111.2 148.8C3259.3 123.7 3407.7 118.3 3555.8 127C3704 135.7 3852 158.3 4000 154.5C4148 150.7 4296 120.3 4444.2 120.2C4592.3 120 4740.7 150 4888.8 187.2C5037 224.3 5185 268.7 5333.2 254.5C5481.3 240.3 5629.7 167.7 5777.8 139.2C5926 110.7 6074 126.3 6222.2 157.7C6370.3 189 6518.7 236 6666.8 232.3C6815 228.7 6963 174.3 7111.2 169.5C7259.3 164.7 7407.7 209.3 7555.8 204.8C7704 200.3 7852 146.7 7926 119.8L8000 93L8000 0L7926 0C7852 0 7704 0 7555.8 0C7407.7 0 7259.3 0 7111.2 0C6963 0 6815 0 6666.8 0C6518.7 0 6370.3 0 6222.2 0C6074 0 5926 0 5777.8 0C5629.7 0 5481.3 0 5333.2 0C5185 0 5037 0 4888.8 0C4740.7 0 4592.3 0 4444.2 0C4296 0 4148 0 4000 0C3852 0 3704 0 3555.8 0C3407.7 0 3259.3 0 3111.2 0C2963 0 2815 0 2666.8 0C2518.7 0 2370.3 0 2222.2 0C2074 0 1926 0 1777.8 0C1629.7 0 1481.3 0 1333.2 0C1185 0 1037 0 888.8 0C740.7 0 592.3 0 444.2 0C296 0 148 0 74 0L0 0Z" fill="#4b1567"></path><path d="M0 121L74 116.5C148 112 296 103 444.2 90.2C592.3 77.3 740.7 60.7 888.8 67.8C1037 75 1185 106 1333.2 128.8C1481.3 151.7 1629.7 166.3 1777.8 158C1926 149.7 2074 118.3 2222.2 122.8C2370.3 127.3 2518.7 167.7 2666.8 173.8C2815 180 2963 152 3111.2 137.5C3259.3 123 3407.7 122 3555.8 114.3C3704 106.7 3852 92.3 4000 91.2C4148 90 4296 102 4444.2 94C4592.3 86 4740.7 58 4888.8 73.2C5037 88.3 5185 146.7 5333.2 145.3C5481.3 144 5629.7 83 5777.8 83.5C5926 84 6074 146 6222.2 163C6370.3 180 6518.7 152 6666.8 131.2C6815 110.3 6963 96.7 7111.2 103.3C7259.3 110 7407.7 137 7555.8 153.2C7704 169.3 7852 174.7 7926 177.3L8000 180L8000 0L7926 0C7852 0 7704 0 7555.8 0C7407.7 0 7259.3 0 7111.2 0C6963 0 6815 0 6666.8 0C6518.7 0 6370.3 0 6222.2 0C6074 0 5926 0 5777.8 0C5629.7 0 5481.3 0 5333.2 0C5185 0 5037 0 4888.8 0C4740.7 0 4592.3 0 4444.2 0C4296 0 4148 0 4000 0C3852 0 3704 0 3555.8 0C3407.7 0 3259.3 0 3111.2 0C2963 0 2815 0 2666.8 0C2518.7 0 2370.3 0 2222.2 0C2074 0 1926 0 1777.8 0C1629.7 0 1481.3 0 1333.2 0C1185 0 1037 0 888.8 0C740.7 0 592.3 0 444.2 0C296 0 148 0 74 0L0 0Z" fill="#57007f"></path></svg>