<svg id="visual" viewBox="0 0 1920 158" width="1920" height="158" xmlns="http://www.w3.org/2000/svg" xmlns:xlink="http://www.w3.org/1999/xlink" version="1.1"><rect x="0" y="0" width="1920" height="158" fill="#222222"></rect><path d="M0 81L26.7 81C53.3 81 106.7 81 160 89.3C213.3 97.7 266.7 114.3 320 118.8C373.3 123.3 426.7 115.7 480 104.3C533.3 93 586.7 78 640 79C693.3 80 746.7 97 800 105.3C853.3 113.7 906.7 113.3 960 109C1013.3 104.7 1066.7 96.3 1120 93.5C1173.3 90.7 1226.7 93.3 1280 98.8C1333.3 104.3 1386.7 112.7 1440 107.3C1493.3 102 1546.7 83 1600 85.2C1653.3 87.3 1706.7 110.7 1760 115.5C1813.3 120.3 1866.7 106.7 1893.3 99.8L1920 93L1920 0L1893.3 0C1866.7 0 1813.3 0 1760 0C1706.7 0 1653.3 0 1600 0C1546.7 0 1493.3 0 1440 0C1386.7 0 1333.3 0 1280 0C1226.7 0 1173.3 0 1120 0C1066.7 0 1013.3 0 960 0C906.7 0 853.3 0 800 0C746.7 0 693.3 0 640 0C586.7 0 533.3 0 480 0C426.7 0 373.3 0 320 0C266.7 0 213.3 0 160 0C106.7 0 53.3 0 26.7 0L0 0Z" fill="#222222"></path><path d="M0 108L26.7 108.8C53.3 109.7 106.7 111.3 160 110.3C213.3 109.3 266.7 105.7 320 98C373.3 90.3 426.7 78.7 480 75.7C533.3 72.7 586.7 78.3 640 85C693.3 91.7 746.7 99.3 800 95.2C853.3 91 906.7 75 960 67.3C1013.3 59.7 1066.7 60.3 1120 65.8C1173.3 71.3 1226.7 81.7 1280 84.3C1333.3 87 1386.7 82 1440 76.7C1493.3 71.3 1546.7 65.7 1600 70.8C1653.3 76 1706.7 92 1760 96.3C1813.3 100.7 1866.7 93.3 1893.3 89.7L1920 86L1920 0L1893.3 0C1866.7 0 1813.3 0 1760 0C1706.7 0 1653.3 0 1600 0C1546.7 0 1493.3 0 1440 0C1386.7 0 1333.3 0 1280 0C1226.7 0 1173.3 0 1120 0C1066.7 0 1013.3 0 960 0C906.7 0 853.3 0 800 0C746.7 0 693.3 0 640 0C586.7 0 533.3 0 480 0C426.7 0 373.3 0 320 0C266.7 0 213.3 0 160 0C106.7 0 53.3 0 26.7 0L0 0Z" fill="#312138"></path><path d="M0 53L26.7 55.5C53.3 58 106.7 63 160 60.8C213.3 58.7 266.7 49.3 320 47C373.3 44.7 426.7 49.3 480 55.2C533.3 61 586.7 68 640 70.5C693.3 73 746.7 71 800 67.2C853.3 63.3 906.7 57.7 960 57.2C1013.3 56.7 1066.7 61.3 1120 64.7C1173.3 68 1226.7 70 1280 73.3C1333.3 76.7 1386.7 81.3 1440 82.3C1493.3 83.3 1546.7 80.7 1600 80C1653.3 79.3 1706.7 80.7 1760 75.2C1813.3 69.7 1866.7 57.3 1893.3 51.2L1920 45L1920 0L1893.3 0C1866.7 0 1813.3 0 1760 0C1706.7 0 1653.3 0 1600 0C1546.7 0 1493.3 0 1440 0C1386.7 0 1333.3 0 1280 0C1226.7 0 1173.3 0 1120 0C1066.7 0 1013.3 0 960 0C906.7 0 853.3 0 800 0C746.7 0 693.3 0 640 0C586.7 0 533.3 0 480 0C426.7 0 373.3 0 320 0C266.7 0 213.3 0 160 0C106.7 0 53.3 0 26.7 0L0 0Z" fill="#3e1d4f"></path><path d="M0 29L26.7 29.2C53.3 29.3 106.7 29.7 160 30C213.3 30.3 266.7 30.7 320 35.7C373.3 40.7 426.7 50.3 480 54.7C533.3 59 586.7 58 640 55.5C693.3 53 746.7 49 800 47C853.3 45 906.7 45 960 42.5C1013.3 40 1066.7 35 1120 32.5C1173.3 30 1226.7 30 1280 36.7C1333.3 43.3 1386.7 56.7 1440 54.8C1493.3 53 1546.7 36 1600 28.3C1653.3 20.7 1706.7 22.3 1760 23.7C1813.3 25 1866.7 26 1893.3 26.5L1920 27L1920 0L1893.3 0C1866.7 0 1813.3 0 1760 0C1706.7 0 1653.3 0 1600 0C1546.7 0 1493.3 0 1440 0C1386.7 0 1333.3 0 1280 0C1226.7 0 1173.3 0 1120 0C1066.7 0 1013.3 0 960 0C906.7 0 853.3 0 800 0C746.7 0 693.3 0 640 0C586.7 0 533.3 0 480 0C426.7 0 373.3 0 320 0C266.7 0 213.3 0 160 0C106.7 0 53.3 0 26.7 0L0 0Z" fill="#4b1567"></path><path d="M0 23L26.7 20.7C53.3 18.3 106.7 13.7 160 16.5C213.3 19.3 266.7 29.7 320 29.5C373.3 29.3 426.7 18.7 480 18.2C533.3 17.7 586.7 27.3 640 31C693.3 34.7 746.7 32.3 800 31C853.3 29.7 906.7 29.3 960 26C1013.3 22.7 1066.7 16.3 1120 15C1173.3 13.7 1226.7 17.3 1280 22.8C1333.3 28.3 1386.7 35.7 1440 34C1493.3 32.3 1546.7 21.7 1600 22C1653.3 22.3 1706.7 33.7 1760 35.5C1813.3 37.3 1866.7 29.7 1893.3 25.8L1920 22L1920 0L1893.3 0C1866.7 0 1813.3 0 1760 0C1706.7 0 1653.3 0 1600 0C1546.7 0 1493.3 0 1440 0C1386.7 0 1333.3 0 1280 0C1226.7 0 1173.3 0 1120 0C1066.7 0 1013.3 0 960 0C906.7 0 853.3 0 800 0C746.7 0 693.3 0 640 0C586.7 0 533.3 0 480 0C426.7 0 373.3 0 320 0C266.7 0 213.3 0 160 0C106.7 0 53.3 0 26.7 0L0 0Z" fill="#57007f"></path></svg>