<svg id="visual" viewBox="0 0 480 676" width="480" height="676" xmlns="http://www.w3.org/2000/svg" xmlns:xlink="http://www.w3.org/1999/xlink" version="1.1"><path d="M0 102L13.3 101C26.7 100 53.3 98 80 98C106.7 98 133.3 100 160 98.8C186.7 97.7 213.3 93.3 240 94.5C266.7 95.7 293.3 102.3 320 101.2C346.7 100 373.3 91 400 89.8C426.7 88.7 453.3 95.3 466.7 98.7L480 102L480 0L466.7 0C453.3 0 426.7 0 400 0C373.3 0 346.7 0 320 0C293.3 0 266.7 0 240 0C213.3 0 186.7 0 160 0C133.3 0 106.7 0 80 0C53.3 0 26.7 0 13.3 0L0 0Z" fill="#fe006f"></path><path d="M0 190L13.3 189C26.7 188 53.3 186 80 187.2C106.7 188.3 133.3 192.7 160 188C186.7 183.3 213.3 169.7 240 167.5C266.7 165.3 293.3 174.7 320 173.7C346.7 172.7 373.3 161.3 400 161.3C426.7 161.3 453.3 172.7 466.7 178.3L480 184L480 100L466.7 96.7C453.3 93.3 426.7 86.7 400 87.8C373.3 89 346.7 98 320 99.2C293.3 100.3 266.7 93.7 240 92.5C213.3 91.3 186.7 95.7 160 96.8C133.3 98 106.7 96 80 96C53.3 96 26.7 98 13.3 99L0 100Z" fill="#db007a"></path><path d="M0 407L13.3 398C26.7 389 53.3 371 80 364.2C106.7 357.3 133.3 361.7 160 361.7C186.7 361.7 213.3 357.3 240 364.2C266.7 371 293.3 389 320 389C346.7 389 373.3 371 400 369.8C426.7 368.7 453.3 384.3 466.7 392.2L480 400L480 182L466.7 176.3C453.3 170.7 426.7 159.3 400 159.3C373.3 159.3 346.7 170.7 320 171.7C293.3 172.7 266.7 163.3 240 165.5C213.3 167.7 186.7 181.3 160 186C133.3 190.7 106.7 186.3 80 185.2C53.3 184 26.7 186 13.3 187L0 188Z" fill="#b40080"></path><path d="M0 549L13.3 553.5C26.7 558 53.3 567 80 570.3C106.7 573.7 133.3 571.3 160 563.3C186.7 555.3 213.3 541.7 240 539.3C266.7 537 293.3 546 320 550.5C346.7 555 373.3 555 400 552.8C426.7 550.7 453.3 546.3 466.7 544.2L480 542L480 398L466.7 390.2C453.3 382.3 426.7 366.7 400 367.8C373.3 369 346.7 387 320 387C293.3 387 266.7 369 240 362.2C213.3 355.3 186.7 359.7 160 359.7C133.3 359.7 106.7 355.3 80 362.2C53.3 369 26.7 387 13.3 396L0 405Z" fill="#890081"></path><path d="M0 677L13.3 677C26.7 677 53.3 677 80 677C106.7 677 133.3 677 160 677C186.7 677 213.3 677 240 677C266.7 677 293.3 677 320 677C346.7 677 373.3 677 400 677C426.7 677 453.3 677 466.7 677L480 677L480 540L466.7 542.2C453.3 544.3 426.7 548.7 400 550.8C373.3 553 346.7 553 320 548.5C293.3 544 266.7 535 240 537.3C213.3 539.7 186.7 553.3 160 561.3C133.3 569.3 106.7 571.7 80 568.3C53.3 565 26.7 556 13.3 551.5L0 547Z" fill="#57007f"></path></svg>