<svg id="visual" viewBox="0 0 960 877" width="960" height="877" xmlns="http://www.w3.org/2000/svg" xmlns:xlink="http://www.w3.org/1999/xlink" version="1.1"><path d="M930 877L930 863.7C930 850.3 930 823.7 928.5 797.2C927 770.7 924 744.3 924 717.8C924 691.3 927 664.7 928.5 638C930 611.3 930 584.7 928.5 558C927 531.3 924 504.7 924 478.2C924 451.7 927 425.3 928.5 398.8C930 372.3 930 345.7 930 319C930 292.3 930 265.7 930 239C930 212.3 930 185.7 928.5 159.2C927 132.7 924 106.3 922.5 79.8C921 53.3 921 26.7 921 13.3L921 0L960 0L960 13.3C960 26.7 960 53.3 960 79.8C960 106.3 960 132.7 960 159.2C960 185.7 960 212.3 960 239C960 265.7 960 292.3 960 319C960 345.7 960 372.3 960 398.8C960 425.3 960 451.7 960 478.2C960 504.7 960 531.3 960 558C960 584.7 960 611.3 960 638C960 664.7 960 691.3 960 717.8C960 744.3 960 770.7 960 797.2C960 823.7 960 850.3 960 863.7L960 877Z" fill="#007e93"></path><path d="M863 877L863 863.7C863 850.3 863 823.7 859.8 797.2C856.7 770.7 850.3 744.3 852 717.8C853.7 691.3 863.3 664.7 866.5 638C869.7 611.3 866.3 584.7 859.8 558C853.3 531.3 843.7 504.7 843.7 478.2C843.7 451.7 853.3 425.3 855 398.8C856.7 372.3 850.3 345.7 847.2 319C844 292.3 844 265.7 847.2 239C850.3 212.3 856.7 185.7 856.7 159.2C856.7 132.7 850.3 106.3 850.3 79.8C850.3 53.3 856.7 26.7 859.8 13.3L863 0L922 0L922 13.3C922 26.7 922 53.3 923.5 79.8C925 106.3 928 132.7 929.5 159.2C931 185.7 931 212.3 931 239C931 265.7 931 292.3 931 319C931 345.7 931 372.3 929.5 398.8C928 425.3 925 451.7 925 478.2C925 504.7 928 531.3 929.5 558C931 584.7 931 611.3 929.5 638C928 664.7 925 691.3 925 717.8C925 744.3 928 770.7 929.5 797.2C931 823.7 931 850.3 931 863.7L931 877Z" fill="#00789a"></path><path d="M825 877L826.5 863.7C828 850.3 831 823.7 827.7 797.2C824.3 770.7 814.7 744.3 816.3 717.8C818 691.3 831 664.7 835.8 638C840.7 611.3 837.3 584.7 830.8 558C824.3 531.3 814.7 504.7 814.7 478.2C814.7 451.7 824.3 425.3 826 398.8C827.7 372.3 821.3 345.7 818.2 319C815 292.3 815 265.7 818.2 239C821.3 212.3 827.7 185.7 827.7 159.2C827.7 132.7 821.3 106.3 819.8 79.8C818.3 53.3 821.7 26.7 823.3 13.3L825 0L864 0L860.8 13.3C857.7 26.7 851.3 53.3 851.3 79.8C851.3 106.3 857.7 132.7 857.7 159.2C857.7 185.7 851.3 212.3 848.2 239C845 265.7 845 292.3 848.2 319C851.3 345.7 857.7 372.3 856 398.8C854.3 425.3 844.7 451.7 844.7 478.2C844.7 504.7 854.3 531.3 860.8 558C867.3 584.7 870.7 611.3 867.5 638C864.3 664.7 854.7 691.3 853 717.8C851.3 744.3 857.7 770.7 860.8 797.2C864 823.7 864 850.3 864 863.7L864 877Z" fill="#00729f"></path><path d="M719 877L720.7 863.7C722.3 850.3 725.7 823.7 725.7 797.2C725.7 770.7 722.3 744.3 723.8 717.8C725.3 691.3 731.7 664.7 736.5 638C741.3 611.3 744.7 584.7 744.7 558C744.7 531.3 741.3 504.7 741.3 478.2C741.3 451.7 744.7 425.3 743.2 398.8C741.7 372.3 735.3 345.7 730.5 319C725.7 292.3 722.3 265.7 723.8 239C725.3 212.3 731.7 185.7 733.3 159.2C735 132.7 732 106.3 732 79.8C732 53.3 735 26.7 736.5 13.3L738 0L826 0L824.3 13.3C822.7 26.7 819.3 53.3 820.8 79.8C822.3 106.3 828.7 132.7 828.7 159.2C828.7 185.7 822.3 212.3 819.2 239C816 265.7 816 292.3 819.2 319C822.3 345.7 828.7 372.3 827 398.8C825.3 425.3 815.7 451.7 815.7 478.2C815.7 504.7 825.3 531.3 831.8 558C838.3 584.7 841.7 611.3 836.8 638C832 664.7 819 691.3 817.3 717.8C815.7 744.3 825.3 770.7 828.7 797.2C832 823.7 829 850.3 827.5 863.7L826 877Z" fill="#1b6aa2"></path><path d="M681 877L682.5 863.7C684 850.3 687 823.7 687 797.2C687 770.7 684 744.3 685.7 717.8C687.3 691.3 693.7 664.7 698.3 638C703 611.3 706 584.7 706 558C706 531.3 703 504.7 701.5 478.2C700 451.7 700 425.3 696.8 398.8C693.7 372.3 687.3 345.7 684.2 319C681 292.3 681 265.7 682.5 239C684 212.3 687 185.7 688.5 159.2C690 132.7 690 106.3 691.7 79.8C693.3 53.3 696.7 26.7 698.3 13.3L700 0L739 0L737.5 13.3C736 26.7 733 53.3 733 79.8C733 106.3 736 132.7 734.3 159.2C732.7 185.7 726.3 212.3 724.8 239C723.3 265.7 726.7 292.3 731.5 319C736.3 345.7 742.7 372.3 744.2 398.8C745.7 425.3 742.3 451.7 742.3 478.2C742.3 504.7 745.7 531.3 745.7 558C745.7 584.7 742.3 611.3 737.5 638C732.7 664.7 726.3 691.3 724.8 717.8C723.3 744.3 726.7 770.7 726.7 797.2C726.7 823.7 723.3 850.3 721.7 863.7L720 877Z" fill="#3a61a1"></path><path d="M469 877L473.8 863.7C478.7 850.3 488.3 823.7 488.3 797.2C488.3 770.7 478.7 744.3 477.2 717.8C475.7 691.3 482.3 664.7 492 638C501.7 611.3 514.3 584.7 511 558C507.7 531.3 488.3 504.7 488.3 478.2C488.3 451.7 507.7 425.3 506.2 398.8C504.7 372.3 482.3 345.7 479.2 319C476 292.3 492 265.7 498.3 239C504.7 212.3 501.3 185.7 498.2 159.2C495 132.7 492 106.3 495.2 79.8C498.3 53.3 507.7 26.7 512.3 13.3L517 0L701 0L699.3 13.3C697.7 26.7 694.3 53.3 692.7 79.8C691 106.3 691 132.7 689.5 159.2C688 185.7 685 212.3 683.5 239C682 265.7 682 292.3 685.2 319C688.3 345.7 694.7 372.3 697.8 398.8C701 425.3 701 451.7 702.5 478.2C704 504.7 707 531.3 707 558C707 584.7 704 611.3 699.3 638C694.7 664.7 688.3 691.3 686.7 717.8C685 744.3 688 770.7 688 797.2C688 823.7 685 850.3 683.5 863.7L682 877Z" fill="#53579c"></path><path d="M297 877L298.5 863.7C300 850.3 303 823.7 303 797.2C303 770.7 300 744.3 301.7 717.8C303.3 691.3 309.7 664.7 316 638C322.3 611.3 328.7 584.7 328.7 558C328.7 531.3 322.3 504.7 324 478.2C325.7 451.7 335.3 425.3 333.7 398.8C332 372.3 319 345.7 311 319C303 292.3 300 265.7 303.2 239C306.3 212.3 315.7 185.7 322 159.2C328.3 132.7 331.7 106.3 330.2 79.8C328.7 53.3 322.3 26.7 319.2 13.3L316 0L518 0L513.3 13.3C508.7 26.7 499.3 53.3 496.2 79.8C493 106.3 496 132.7 499.2 159.2C502.3 185.7 505.7 212.3 499.3 239C493 265.7 477 292.3 480.2 319C483.3 345.7 505.7 372.3 507.2 398.8C508.7 425.3 489.3 451.7 489.3 478.2C489.3 504.7 508.7 531.3 512 558C515.3 584.7 502.7 611.3 493 638C483.3 664.7 476.7 691.3 478.2 717.8C479.7 744.3 489.3 770.7 489.3 797.2C489.3 823.7 479.7 850.3 474.8 863.7L470 877Z" fill="#684b91"></path><path d="M249 877L252.2 863.7C255.3 850.3 261.7 823.7 261.7 797.2C261.7 770.7 255.3 744.3 256.8 717.8C258.3 691.3 267.7 664.7 275.7 638C283.7 611.3 290.3 584.7 290.3 558C290.3 531.3 283.7 504.7 285.2 478.2C286.7 451.7 296.3 425.3 293.2 398.8C290 372.3 274 345.7 266 319C258 292.3 258 265.7 261.2 239C264.3 212.3 270.7 185.7 275.5 159.2C280.3 132.7 283.7 106.3 283.7 79.8C283.7 53.3 280.3 26.7 278.7 13.3L277 0L317 0L320.2 13.3C323.3 26.7 329.7 53.3 331.2 79.8C332.7 106.3 329.3 132.7 323 159.2C316.7 185.7 307.3 212.3 304.2 239C301 265.7 304 292.3 312 319C320 345.7 333 372.3 334.7 398.8C336.3 425.3 326.7 451.7 325 478.2C323.3 504.7 329.7 531.3 329.7 558C329.7 584.7 323.3 611.3 317 638C310.7 664.7 304.3 691.3 302.7 717.8C301 744.3 304 770.7 304 797.2C304 823.7 301 850.3 299.5 863.7L298 877Z" fill="#7a3d82"></path><path d="M153 877L156.2 863.7C159.3 850.3 165.7 823.7 162.3 797.2C159 770.7 146 744.3 144.3 717.8C142.7 691.3 152.3 664.7 160.3 638C168.3 611.3 174.7 584.7 176.3 558C178 531.3 175 504.7 175 478.2C175 451.7 178 425.3 174.8 398.8C171.7 372.3 162.3 345.7 157.7 319C153 292.3 153 265.7 157.7 239C162.3 212.3 171.7 185.7 173.2 159.2C174.7 132.7 168.3 106.3 166.8 79.8C165.3 53.3 168.7 26.7 170.3 13.3L172 0L278 0L279.7 13.3C281.3 26.7 284.7 53.3 284.7 79.8C284.7 106.3 281.3 132.7 276.5 159.2C271.7 185.7 265.3 212.3 262.2 239C259 265.7 259 292.3 267 319C275 345.7 291 372.3 294.2 398.8C297.3 425.3 287.7 451.7 286.2 478.2C284.7 504.7 291.3 531.3 291.3 558C291.3 584.7 284.7 611.3 276.7 638C268.7 664.7 259.3 691.3 257.8 717.8C256.3 744.3 262.7 770.7 262.7 797.2C262.7 823.7 256.3 850.3 253.2 863.7L250 877Z" fill="#872d6f"></path><path d="M85 877L88.3 863.7C91.7 850.3 98.3 823.7 98.3 797.2C98.3 770.7 91.7 744.3 90 717.8C88.3 691.3 91.7 664.7 96.5 638C101.3 611.3 107.7 584.7 107.7 558C107.7 531.3 101.3 504.7 101.3 478.2C101.3 451.7 107.7 425.3 109.3 398.8C111 372.3 108 345.7 104.8 319C101.7 292.3 98.3 265.7 99.8 239C101.3 212.3 107.7 185.7 107.7 159.2C107.7 132.7 101.3 106.3 99.8 79.8C98.3 53.3 101.7 26.7 103.3 13.3L105 0L173 0L171.3 13.3C169.7 26.7 166.3 53.3 167.8 79.8C169.3 106.3 175.7 132.7 174.2 159.2C172.7 185.7 163.3 212.3 158.7 239C154 265.7 154 292.3 158.7 319C163.3 345.7 172.7 372.3 175.8 398.8C179 425.3 176 451.7 176 478.2C176 504.7 179 531.3 177.3 558C175.7 584.7 169.3 611.3 161.3 638C153.3 664.7 143.7 691.3 145.3 717.8C147 744.3 160 770.7 163.3 797.2C166.7 823.7 160.3 850.3 157.2 863.7L154 877Z" fill="#8f1c59"></path><path d="M37 877L38.7 863.7C40.3 850.3 43.7 823.7 43.7 797.2C43.7 770.7 40.3 744.3 38.7 717.8C37 691.3 37 664.7 40.3 638C43.7 611.3 50.3 584.7 50.3 558C50.3 531.3 43.7 504.7 43.7 478.2C43.7 451.7 50.3 425.3 50.3 398.8C50.3 372.3 43.7 345.7 40.3 319C37 292.3 37 265.7 40.3 239C43.7 212.3 50.3 185.7 52 159.2C53.7 132.7 50.3 106.3 50.3 79.8C50.3 53.3 53.7 26.7 55.3 13.3L57 0L106 0L104.3 13.3C102.7 26.7 99.3 53.3 100.8 79.8C102.3 106.3 108.7 132.7 108.7 159.2C108.7 185.7 102.3 212.3 100.8 239C99.3 265.7 102.7 292.3 105.8 319C109 345.7 112 372.3 110.3 398.8C108.7 425.3 102.3 451.7 102.3 478.2C102.3 504.7 108.7 531.3 108.7 558C108.7 584.7 102.3 611.3 97.5 638C92.7 664.7 89.3 691.3 91 717.8C92.7 744.3 99.3 770.7 99.3 797.2C99.3 823.7 92.7 850.3 89.3 863.7L86 877Z" fill="#910942"></path><path d="M0 877L0 863.7C0 850.3 0 823.7 0 797.2C0 770.7 0 744.3 0 717.8C0 691.3 0 664.7 0 638C0 611.3 0 584.7 0 558C0 531.3 0 504.7 0 478.2C0 451.7 0 425.3 0 398.8C0 372.3 0 345.7 0 319C0 292.3 0 265.7 0 239C0 212.3 0 185.7 0 159.2C0 132.7 0 106.3 0 79.8C0 53.3 0 26.7 0 13.3L0 0L58 0L56.3 13.3C54.7 26.7 51.3 53.3 51.3 79.8C51.3 106.3 54.7 132.7 53 159.2C51.3 185.7 44.7 212.3 41.3 239C38 265.7 38 292.3 41.3 319C44.7 345.7 51.3 372.3 51.3 398.8C51.3 425.3 44.7 451.7 44.7 478.2C44.7 504.7 51.3 531.3 51.3 558C51.3 584.7 44.7 611.3 41.3 638C38 664.7 38 691.3 39.7 717.8C41.3 744.3 44.7 770.7 44.7 797.2C44.7 823.7 41.3 850.3 39.7 863.7L38 877Z" fill="#8e0029"></path></svg>