<svg id="visual" viewBox="0 0 480 676" width="480" height="676" xmlns="http://www.w3.org/2000/svg" xmlns:xlink="http://www.w3.org/1999/xlink" version="1.1"><path d="M0 238L13.3 233.5C26.7 229 53.3 220 80 218.8C106.7 217.7 133.3 224.3 160 225.3C186.7 226.3 213.3 221.7 240 210.3C266.7 199 293.3 181 320 181C346.7 181 373.3 199 400 205.8C426.7 212.7 453.3 208.3 466.7 206.2L480 204L480 0L466.7 0C453.3 0 426.7 0 400 0C373.3 0 346.7 0 320 0C293.3 0 266.7 0 240 0C213.3 0 186.7 0 160 0C133.3 0 106.7 0 80 0C53.3 0 26.7 0 13.3 0L0 0Z" fill="#fe006f"></path><path d="M0 325L13.3 320.5C26.7 316 53.3 307 80 304.8C106.7 302.7 133.3 307.3 160 308.5C186.7 309.7 213.3 307.3 240 296C266.7 284.7 293.3 264.3 320 264.3C346.7 264.3 373.3 284.7 400 292.7C426.7 300.7 453.3 296.3 466.7 294.2L480 292L480 202L466.7 204.2C453.3 206.3 426.7 210.7 400 203.8C373.3 197 346.7 179 320 179C293.3 179 266.7 197 240 208.3C213.3 219.7 186.7 224.3 160 223.3C133.3 222.3 106.7 215.7 80 216.8C53.3 218 26.7 227 13.3 231.5L0 236Z" fill="#db007a"></path><path d="M0 481L13.3 479.8C26.7 478.7 53.3 476.3 80 474C106.7 471.7 133.3 469.3 160 469.3C186.7 469.3 213.3 471.7 240 467.2C266.7 462.7 293.3 451.3 320 450.2C346.7 449 373.3 458 400 466C426.7 474 453.3 481 466.7 484.5L480 488L480 290L466.7 292.2C453.3 294.3 426.7 298.7 400 290.7C373.3 282.7 346.7 262.3 320 262.3C293.3 262.3 266.7 282.7 240 294C213.3 305.3 186.7 307.7 160 306.5C133.3 305.3 106.7 300.7 80 302.8C53.3 305 26.7 314 13.3 318.5L0 323Z" fill="#b40080"></path><path d="M0 589L13.3 589C26.7 589 53.3 589 80 590.2C106.7 591.3 133.3 593.7 160 597C186.7 600.3 213.3 604.7 240 602.3C266.7 600 293.3 591 320 590C346.7 589 373.3 596 400 597.2C426.7 598.3 453.3 593.7 466.7 591.3L480 589L480 486L466.7 482.5C453.3 479 426.7 472 400 464C373.3 456 346.7 447 320 448.2C293.3 449.3 266.7 460.7 240 465.2C213.3 469.7 186.7 467.3 160 467.3C133.3 467.3 106.7 469.7 80 472C53.3 474.3 26.7 476.7 13.3 477.8L0 479Z" fill="#890081"></path><path d="M0 677L13.3 677C26.7 677 53.3 677 80 677C106.7 677 133.3 677 160 677C186.7 677 213.3 677 240 677C266.7 677 293.3 677 320 677C346.7 677 373.3 677 400 677C426.7 677 453.3 677 466.7 677L480 677L480 587L466.7 589.3C453.3 591.7 426.7 596.3 400 595.2C373.3 594 346.7 587 320 588C293.3 589 266.7 598 240 600.3C213.3 602.7 186.7 598.3 160 595C133.3 591.7 106.7 589.3 80 588.2C53.3 587 26.7 587 13.3 587L0 587Z" fill="#57007f"></path></svg>