<svg id="visual" viewBox="0 0 8000 663" width="8000" height="663" xmlns="http://www.w3.org/2000/svg" xmlns:xlink="http://www.w3.org/1999/xlink" version="1.1"><rect x="0" y="0" width="8000" height="663" fill="#222222"></rect><path d="M0 57L74 108.7C148 160.3 296 263.7 444.2 259.8C592.3 256 740.7 145 888.8 112.2C1037 79.3 1185 124.7 1333.2 151.5C1481.3 178.3 1629.7 186.7 1777.8 185.3C1926 184 2074 173 2222.2 197.2C2370.3 221.3 2518.7 280.7 2666.8 302.7C2815 324.7 2963 309.3 3111.2 263.2C3259.3 217 3407.7 140 3555.8 95.5C3704 51 3852 39 4000 52.5C4148 66 4296 105 4444.2 154C4592.3 203 4740.7 262 4888.8 278.2C5037 294.3 5185 267.7 5333.2 221C5481.3 174.3 5629.7 107.7 5777.8 109.5C5926 111.3 6074 181.7 6222.2 191.3C6370.3 201 6518.7 150 6666.8 169.3C6815 188.7 6963 278.3 7111.2 312C7259.3 345.7 7407.7 323.3 7555.8 283.5C7704 243.7 7852 186.3 7926 157.7L8000 129L8000 664L7926 664C7852 664 7704 664 7555.8 664C7407.7 664 7259.3 664 7111.2 664C6963 664 6815 664 6666.8 664C6518.7 664 6370.3 664 6222.2 664C6074 664 5926 664 5777.8 664C5629.7 664 5481.3 664 5333.2 664C5185 664 5037 664 4888.8 664C4740.7 664 4592.3 664 4444.2 664C4296 664 4148 664 4000 664C3852 664 3704 664 3555.8 664C3407.7 664 3259.3 664 3111.2 664C2963 664 2815 664 2666.8 664C2518.7 664 2370.3 664 2222.2 664C2074 664 1926 664 1777.8 664C1629.7 664 1481.3 664 1333.2 664C1185 664 1037 664 888.8 664C740.7 664 592.3 664 444.2 664C296 664 148 664 74 664L0 664Z" fill="#222222"></path><path d="M0 210L74 195.2C148 180.3 296 150.7 444.2 161.7C592.3 172.7 740.7 224.3 888.8 251.7C1037 279 1185 282 1333.2 312.7C1481.3 343.3 1629.7 401.7 1777.8 425.2C1926 448.7 2074 437.3 2222.2 426.5C2370.3 415.7 2518.7 405.3 2666.8 371.7C2815 338 2963 281 3111.2 272.5C3259.3 264 3407.7 304 3555.8 324.8C3704 345.7 3852 347.3 4000 340.8C4148 334.3 4296 319.7 4444.2 333.2C4592.3 346.7 4740.7 388.3 4888.8 362.5C5037 336.7 5185 243.3 5333.2 214.7C5481.3 186 5629.7 222 5777.8 244.2C5926 266.3 6074 274.7 6222.2 292.7C6370.3 310.7 6518.7 338.3 6666.8 353.3C6815 368.3 6963 370.7 7111.2 343.5C7259.3 316.3 7407.7 259.7 7555.8 244.5C7704 229.3 7852 255.7 7926 268.8L8000 282L8000 664L7926 664C7852 664 7704 664 7555.8 664C7407.7 664 7259.3 664 7111.2 664C6963 664 6815 664 6666.8 664C6518.7 664 6370.3 664 6222.2 664C6074 664 5926 664 5777.8 664C5629.7 664 5481.3 664 5333.2 664C5185 664 5037 664 4888.8 664C4740.7 664 4592.3 664 4444.2 664C4296 664 4148 664 4000 664C3852 664 3704 664 3555.8 664C3407.7 664 3259.3 664 3111.2 664C2963 664 2815 664 2666.8 664C2518.7 664 2370.3 664 2222.2 664C2074 664 1926 664 1777.8 664C1629.7 664 1481.3 664 1333.2 664C1185 664 1037 664 888.8 664C740.7 664 592.3 664 444.2 664C296 664 148 664 74 664L0 664Z" fill="#562b34"></path><path d="M0 288L74 290C148 292 296 296 444.2 313.7C592.3 331.3 740.7 362.7 888.8 368.5C1037 374.3 1185 354.7 1333.2 335.7C1481.3 316.7 1629.7 298.3 1777.8 282.3C1926 266.3 2074 252.7 2222.2 256.2C2370.3 259.7 2518.7 280.3 2666.8 320C2815 359.7 2963 418.3 3111.2 436.7C3259.3 455 3407.7 433 3555.8 400.8C3704 368.7 3852 326.3 4000 338.3C4148 350.3 4296 416.7 4444.2 424.8C4592.3 433 4740.7 383 4888.8 356.2C5037 329.3 5185 325.7 5333.2 342.3C5481.3 359 5629.7 396 5777.8 419.2C5926 442.3 6074 451.7 6222.2 445C6370.3 438.3 6518.7 415.7 6666.8 375.7C6815 335.7 6963 278.3 7111.2 279.8C7259.3 281.3 7407.7 341.7 7555.8 375.8C7704 410 7852 418 7926 422L8000 426L8000 664L7926 664C7852 664 7704 664 7555.8 664C7407.7 664 7259.3 664 7111.2 664C6963 664 6815 664 6666.8 664C6518.7 664 6370.3 664 6222.2 664C6074 664 5926 664 5777.8 664C5629.7 664 5481.3 664 5333.2 664C5185 664 5037 664 4888.8 664C4740.7 664 4592.3 664 4444.2 664C4296 664 4148 664 4000 664C3852 664 3704 664 3555.8 664C3407.7 664 3259.3 664 3111.2 664C2963 664 2815 664 2666.8 664C2518.7 664 2370.3 664 2222.2 664C2074 664 1926 664 1777.8 664C1629.7 664 1481.3 664 1333.2 664C1185 664 1037 664 888.8 664C740.7 664 592.3 664 444.2 664C296 664 148 664 74 664L0 664Z" fill="#8b2e47"></path><path d="M0 560L74 558.5C148 557 296 554 444.2 555.5C592.3 557 740.7 563 888.8 554.8C1037 546.7 1185 524.3 1333.2 517.5C1481.3 510.7 1629.7 519.3 1777.8 506C1926 492.7 2074 457.3 2222.2 462.3C2370.3 467.3 2518.7 512.7 2666.8 536.5C2815 560.3 2963 562.7 3111.2 562.5C3259.3 562.3 3407.7 559.7 3555.8 545C3704 530.3 3852 503.7 4000 495.5C4148 487.3 4296 497.7 4444.2 475.2C4592.3 452.7 4740.7 397.3 4888.8 405.8C5037 414.3 5185 486.7 5333.2 485.7C5481.3 484.7 5629.7 410.3 5777.8 403.3C5926 396.3 6074 456.7 6222.2 459C6370.3 461.3 6518.7 405.7 6666.8 390.5C6815 375.3 6963 400.7 7111.2 411.3C7259.3 422 7407.7 418 7555.8 435.2C7704 452.3 7852 490.7 7926 509.8L8000 529L8000 664L7926 664C7852 664 7704 664 7555.8 664C7407.7 664 7259.3 664 7111.2 664C6963 664 6815 664 6666.8 664C6518.7 664 6370.3 664 6222.2 664C6074 664 5926 664 5777.8 664C5629.7 664 5481.3 664 5333.2 664C5185 664 5037 664 4888.8 664C4740.7 664 4592.3 664 4444.2 664C4296 664 4148 664 4000 664C3852 664 3704 664 3555.8 664C3407.7 664 3259.3 664 3111.2 664C2963 664 2815 664 2666.8 664C2518.7 664 2370.3 664 2222.2 664C2074 664 1926 664 1777.8 664C1629.7 664 1481.3 664 1333.2 664C1185 664 1037 664 888.8 664C740.7 664 592.3 664 444.2 664C296 664 148 664 74 664L0 664Z" fill="#c3275b"></path><path d="M0 633L74 635.5C148 638 296 643 444.2 614.7C592.3 586.3 740.7 524.7 888.8 494.8C1037 465 1185 467 1333.2 495C1481.3 523 1629.7 577 1777.8 591.7C1926 606.3 2074 581.7 2222.2 568.5C2370.3 555.3 2518.7 553.7 2666.8 547.5C2815 541.3 2963 530.7 3111.2 534.2C3259.3 537.7 3407.7 555.3 3555.8 565.7C3704 576 3852 579 4000 568.8C4148 558.7 4296 535.3 4444.2 519.7C4592.3 504 4740.7 496 4888.8 490.7C5037 485.3 5185 482.7 5333.2 511.3C5481.3 540 5629.7 600 5777.8 618.7C5926 637.3 6074 614.7 6222.2 589.3C6370.3 564 6518.7 536 6666.8 544C6815 552 6963 596 7111.2 595.2C7259.3 594.3 7407.7 548.7 7555.8 544.2C7704 539.7 7852 576.3 7926 594.7L8000 613L8000 664L7926 664C7852 664 7704 664 7555.8 664C7407.7 664 7259.3 664 7111.2 664C6963 664 6815 664 6666.8 664C6518.7 664 6370.3 664 6222.2 664C6074 664 5926 664 5777.8 664C5629.7 664 5481.3 664 5333.2 664C5185 664 5037 664 4888.8 664C4740.7 664 4592.3 664 4444.2 664C4296 664 4148 664 4000 664C3852 664 3704 664 3555.8 664C3407.7 664 3259.3 664 3111.2 664C2963 664 2815 664 2666.8 664C2518.7 664 2370.3 664 2222.2 664C2074 664 1926 664 1777.8 664C1629.7 664 1481.3 664 1333.2 664C1185 664 1037 664 888.8 664C740.7 664 592.3 664 444.2 664C296 664 148 664 74 664L0 664Z" fill="#fe006f"></path></svg>