<svg id="visual" viewBox="0 0 8000 663" width="8000" height="663" xmlns="http://www.w3.org/2000/svg" xmlns:xlink="http://www.w3.org/1999/xlink" version="1.1"><rect x="0" y="0" width="8000" height="663" fill="#222222"></rect><path d="M0 375L74 360.8C148 346.7 296 318.3 444.2 268.7C592.3 219 740.7 148 888.8 116.8C1037 85.7 1185 94.3 1333.2 99.7C1481.3 105 1629.7 107 1777.8 93.2C1926 79.3 2074 49.7 2222.2 62.8C2370.3 76 2518.7 132 2666.8 132.8C2815 133.7 2963 79.3 3111.2 66.2C3259.3 53 3407.7 81 3555.8 100.2C3704 119.3 3852 129.7 4000 170.2C4148 210.7 4296 281.3 4444.2 262C4592.3 242.7 4740.7 133.3 4888.8 105.3C5037 77.3 5185 130.7 5333.2 164C5481.3 197.3 5629.7 210.7 5777.8 237.3C5926 264 6074 304 6222.2 323.8C6370.3 343.7 6518.7 343.3 6666.8 329.7C6815 316 6963 289 7111.2 262C7259.3 235 7407.7 208 7555.8 206.8C7704 205.7 7852 230.3 7926 242.7L8000 255L8000 664L7926 664C7852 664 7704 664 7555.8 664C7407.7 664 7259.3 664 7111.2 664C6963 664 6815 664 6666.8 664C6518.7 664 6370.3 664 6222.2 664C6074 664 5926 664 5777.8 664C5629.7 664 5481.3 664 5333.2 664C5185 664 5037 664 4888.8 664C4740.7 664 4592.3 664 4444.2 664C4296 664 4148 664 4000 664C3852 664 3704 664 3555.8 664C3407.7 664 3259.3 664 3111.2 664C2963 664 2815 664 2666.8 664C2518.7 664 2370.3 664 2222.2 664C2074 664 1926 664 1777.8 664C1629.7 664 1481.3 664 1333.2 664C1185 664 1037 664 888.8 664C740.7 664 592.3 664 444.2 664C296 664 148 664 74 664L0 664Z" fill="#222222"></path><path d="M0 413L74 366.2C148 319.3 296 225.7 444.2 218.7C592.3 211.7 740.7 291.3 888.8 320.8C1037 350.3 1185 329.7 1333.2 299.3C1481.3 269 1629.7 229 1777.8 250.8C1926 272.7 2074 356.3 2222.2 346.5C2370.3 336.7 2518.7 233.3 2666.8 236.7C2815 240 2963 350 3111.2 353C3259.3 356 3407.7 252 3555.8 239.3C3704 226.7 3852 305.3 4000 303.8C4148 302.3 4296 220.7 4444.2 214.3C4592.3 208 4740.7 277 4888.8 279.2C5037 281.3 5185 216.7 5333.2 212C5481.3 207.3 5629.7 262.7 5777.8 310.2C5926 357.7 6074 397.3 6222.2 376.2C6370.3 355 6518.7 273 6666.8 241.7C6815 210.3 6963 229.7 7111.2 245.2C7259.3 260.7 7407.7 272.3 7555.8 281.3C7704 290.3 7852 296.7 7926 299.8L8000 303L8000 664L7926 664C7852 664 7704 664 7555.8 664C7407.7 664 7259.3 664 7111.2 664C6963 664 6815 664 6666.8 664C6518.7 664 6370.3 664 6222.2 664C6074 664 5926 664 5777.8 664C5629.7 664 5481.3 664 5333.2 664C5185 664 5037 664 4888.8 664C4740.7 664 4592.3 664 4444.2 664C4296 664 4148 664 4000 664C3852 664 3704 664 3555.8 664C3407.7 664 3259.3 664 3111.2 664C2963 664 2815 664 2666.8 664C2518.7 664 2370.3 664 2222.2 664C2074 664 1926 664 1777.8 664C1629.7 664 1481.3 664 1333.2 664C1185 664 1037 664 888.8 664C740.7 664 592.3 664 444.2 664C296 664 148 664 74 664L0 664Z" fill="#562b34"></path><path d="M0 417L74 414.3C148 411.7 296 406.3 444.2 418.3C592.3 430.3 740.7 459.7 888.8 479C1037 498.3 1185 507.7 1333.2 504.3C1481.3 501 1629.7 485 1777.8 445.8C1926 406.7 2074 344.3 2222.2 315.3C2370.3 286.3 2518.7 290.7 2666.8 285.5C2815 280.3 2963 265.7 3111.2 293.3C3259.3 321 3407.7 391 3555.8 431.7C3704 472.3 3852 483.7 4000 477.3C4148 471 4296 447 4444.2 433C4592.3 419 4740.7 415 4888.8 396.3C5037 377.7 5185 344.3 5333.2 338.8C5481.3 333.3 5629.7 355.7 5777.8 360.5C5926 365.3 6074 352.7 6222.2 346.5C6370.3 340.3 6518.7 340.7 6666.8 336.5C6815 332.3 6963 323.7 7111.2 354.5C7259.3 385.3 7407.7 455.7 7555.8 450.7C7704 445.7 7852 365.3 7926 325.2L8000 285L8000 664L7926 664C7852 664 7704 664 7555.8 664C7407.7 664 7259.3 664 7111.2 664C6963 664 6815 664 6666.8 664C6518.7 664 6370.3 664 6222.2 664C6074 664 5926 664 5777.8 664C5629.7 664 5481.3 664 5333.2 664C5185 664 5037 664 4888.8 664C4740.7 664 4592.3 664 4444.2 664C4296 664 4148 664 4000 664C3852 664 3704 664 3555.8 664C3407.7 664 3259.3 664 3111.2 664C2963 664 2815 664 2666.8 664C2518.7 664 2370.3 664 2222.2 664C2074 664 1926 664 1777.8 664C1629.7 664 1481.3 664 1333.2 664C1185 664 1037 664 888.8 664C740.7 664 592.3 664 444.2 664C296 664 148 664 74 664L0 664Z" fill="#8b2e47"></path><path d="M0 525L74 504.2C148 483.3 296 441.7 444.2 438.7C592.3 435.7 740.7 471.3 888.8 471.8C1037 472.3 1185 437.7 1333.2 438.5C1481.3 439.3 1629.7 475.7 1777.8 477.7C1926 479.7 2074 447.3 2222.2 448.8C2370.3 450.3 2518.7 485.7 2666.8 507.2C2815 528.7 2963 536.3 3111.2 529.3C3259.3 522.3 3407.7 500.7 3555.8 477.2C3704 453.7 3852 428.3 4000 439.3C4148 450.3 4296 497.7 4444.2 519.8C4592.3 542 4740.7 539 4888.8 541.5C5037 544 5185 552 5333.2 522.5C5481.3 493 5629.7 426 5777.8 427.5C5926 429 6074 499 6222.2 531.7C6370.3 564.3 6518.7 559.7 6666.8 522.2C6815 484.7 6963 414.3 7111.2 393C7259.3 371.7 7407.7 399.3 7555.8 405.8C7704 412.3 7852 397.7 7926 390.3L8000 383L8000 664L7926 664C7852 664 7704 664 7555.8 664C7407.7 664 7259.3 664 7111.2 664C6963 664 6815 664 6666.8 664C6518.7 664 6370.3 664 6222.2 664C6074 664 5926 664 5777.8 664C5629.7 664 5481.3 664 5333.2 664C5185 664 5037 664 4888.8 664C4740.7 664 4592.3 664 4444.2 664C4296 664 4148 664 4000 664C3852 664 3704 664 3555.8 664C3407.7 664 3259.3 664 3111.2 664C2963 664 2815 664 2666.8 664C2518.7 664 2370.3 664 2222.2 664C2074 664 1926 664 1777.8 664C1629.7 664 1481.3 664 1333.2 664C1185 664 1037 664 888.8 664C740.7 664 592.3 664 444.2 664C296 664 148 664 74 664L0 664Z" fill="#c3275b"></path><path d="M0 525L74 518.3C148 511.7 296 498.3 444.2 509C592.3 519.7 740.7 554.3 888.8 578.2C1037 602 1185 615 1333.2 619.2C1481.3 623.3 1629.7 618.7 1777.8 597.2C1926 575.7 2074 537.3 2222.2 516.2C2370.3 495 2518.7 491 2666.8 512.2C2815 533.3 2963 579.7 3111.2 600.8C3259.3 622 3407.7 618 3555.8 598.7C3704 579.3 3852 544.7 4000 535.5C4148 526.3 4296 542.7 4444.2 551.5C4592.3 560.3 4740.7 561.7 4888.8 555.3C5037 549 5185 535 5333.2 544C5481.3 553 5629.7 585 5777.8 587C5926 589 6074 561 6222.2 536C6370.3 511 6518.7 489 6666.8 498.7C6815 508.3 6963 549.7 7111.2 563.8C7259.3 578 7407.7 565 7555.8 564.3C7704 563.7 7852 575.3 7926 581.2L8000 587L8000 664L7926 664C7852 664 7704 664 7555.8 664C7407.7 664 7259.3 664 7111.2 664C6963 664 6815 664 6666.8 664C6518.7 664 6370.3 664 6222.2 664C6074 664 5926 664 5777.8 664C5629.7 664 5481.3 664 5333.2 664C5185 664 5037 664 4888.8 664C4740.7 664 4592.3 664 4444.2 664C4296 664 4148 664 4000 664C3852 664 3704 664 3555.8 664C3407.7 664 3259.3 664 3111.2 664C2963 664 2815 664 2666.8 664C2518.7 664 2370.3 664 2222.2 664C2074 664 1926 664 1777.8 664C1629.7 664 1481.3 664 1333.2 664C1185 664 1037 664 888.8 664C740.7 664 592.3 664 444.2 664C296 664 148 664 74 664L0 664Z" fill="#fe006f"></path></svg>